<svg width="26" height="27" viewBox="0 0 26 27" fill="none" xmlns="http://www.w3.org/2000/svg">
<path fill-rule="evenodd" clip-rule="evenodd" d="M12.6737 0.449951C19.3862 0.449951 24.8463 5.90995 24.8463 12.6225C24.8463 15.7894 23.6309 18.6778 21.6421 20.8456L25.5555 24.7508C25.9218 25.1171 25.923 25.7096 25.5568 26.0758C25.3743 26.2608 25.133 26.3521 24.893 26.3521C24.6543 26.3521 24.4142 26.2608 24.2305 26.0783L20.2698 22.1287C18.1863 23.7973 15.5446 24.7962 12.6737 24.7962C5.96125 24.7962 0.5 19.335 0.5 12.6225C0.5 5.90995 5.96125 0.449951 12.6737 0.449951ZM12.6737 2.32495C6.995 2.32495 2.375 6.9437 2.375 12.6225C2.375 18.3012 6.995 22.9212 12.6737 22.9212C18.3512 22.9212 22.9713 18.3012 22.9713 12.6225C22.9713 6.9437 18.3512 2.32495 12.6737 2.32495Z" fill="black"/>
</svg>
