<svg width="77" height="42" viewBox="0 0 77 42" fill="none" xmlns="http://www.w3.org/2000/svg">
<path d="M67.8246 40.0628C67.8246 21.7822 53.0053 6.96289 34.7247 6.96289C16.4442 6.96289 1.62482 21.7822 1.62482 40.0628" stroke="#D5D5D5" stroke-width="2" stroke-linecap="round"/>
<path d="M1.62482 40.0628C1.62482 21.7822 16.4442 6.96289 34.7247 6.96289C45.062 6.96289 54.2924 11.7016 60.3623 19.1252" stroke="#818181" stroke-width="2" stroke-linecap="round"/>
<path d="M61.9172 12.7163C61.6888 12.6344 61.5247 12.4892 61.4248 12.2807C61.3249 12.0721 61.3157 11.8553 61.397 11.6301L61.9687 10.0358C62.0497 9.80999 62.195 9.64827 62.4046 9.55071C62.6142 9.45315 62.8329 9.44548 63.0605 9.5277C63.2889 9.60959 63.453 9.7548 63.5528 9.96334C63.6527 10.1719 63.662 10.3887 63.5806 10.6139L63.009 12.2082C62.928 12.434 62.7827 12.5957 62.5731 12.6933C62.3634 12.7909 62.1448 12.7985 61.9172 12.7163ZM65.3208 15.781C65.2255 15.5819 65.2171 15.3729 65.2956 15.1539C65.3741 14.935 65.5159 14.772 65.721 14.665L67.2567 13.9337C67.4751 13.8321 67.695 13.8209 67.9163 13.9003C68.1377 13.9797 68.3007 14.1281 68.4053 14.3455C68.5006 14.5447 68.5078 14.7572 68.4268 14.983C68.3458 15.2089 68.2053 15.3684 68.0051 15.4615L66.4492 16.1856C66.2491 16.2788 66.0348 16.2844 65.8064 16.2026C65.5781 16.1207 65.4162 15.9802 65.3208 15.781ZM66.0784 21.4055C65.85 21.3237 65.6859 21.1784 65.586 20.9699C65.4862 20.7614 65.4769 20.5445 65.5582 20.3194C65.6392 20.0935 65.7845 19.9318 65.9942 19.8343C66.2038 19.7367 66.4224 19.729 66.6501 19.8112L68.262 20.3893C68.4904 20.4711 68.6545 20.6164 68.7544 20.8249C68.8543 21.0334 68.8635 21.2503 68.7822 21.4754C68.7012 21.7013 68.5559 21.863 68.3463 21.9605C68.1366 22.0581 67.918 22.0658 67.6904 21.9836L66.0784 21.4055ZM56.7721 27.065C56.5437 26.9831 56.3796 26.8379 56.2798 26.6294C56.1799 26.4208 56.1706 26.204 56.252 25.9788L56.8236 24.3845C56.9046 24.1587 57.0499 23.997 57.2596 23.8994C57.4692 23.8018 57.6878 23.7942 57.9155 23.8764C58.1438 23.9583 58.3079 24.1035 58.4078 24.312C58.5077 24.5206 58.5169 24.7374 58.4356 24.9626L57.8639 26.5569C57.7829 26.7827 57.6376 26.9444 57.428 27.042C57.2184 27.1395 56.9997 27.1472 56.7721 27.065ZM56.2131 12.5153L55.4648 10.9874C55.3607 10.7702 55.3492 10.5487 55.4302 10.3228C55.5112 10.0969 55.6585 9.93983 55.8721 9.85149C56.0723 9.75833 56.2865 9.75269 56.5149 9.83458C56.7433 9.91646 56.9051 10.057 57.0005 10.2561L57.7417 11.8039C57.8371 12.003 57.8443 12.2155 57.7633 12.4413C57.6823 12.6672 57.5417 12.8267 57.3415 12.9199C57.1279 13.0082 56.9137 13.0139 56.6987 12.9368C56.4838 12.8597 56.3219 12.7192 56.2131 12.5153ZM62.812 26.3294L62.0909 24.7888C62.0003 24.5764 61.9944 24.3605 62.0731 24.141C62.1518 23.9215 62.2911 23.7654 62.4911 23.6728C62.6912 23.5797 62.9023 23.5729 63.1242 23.6524C63.3461 23.732 63.5112 23.8737 63.6195 24.0774L64.3678 25.6053C64.4766 25.8092 64.4873 26.023 64.3999 26.2465C64.3124 26.4701 64.166 26.635 63.9605 26.7412C63.7421 26.8428 63.5188 26.8527 63.2904 26.7708C63.062 26.6889 62.9026 26.5418 62.812 26.3294ZM51.5706 16.2034C51.3422 16.1216 51.1781 15.9763 51.0782 15.7678C50.9783 15.5593 50.9691 15.3424 51.0504 15.1173C51.1314 14.8914 51.2767 14.7297 51.4863 14.6322C51.696 14.5346 51.9146 14.5269 52.1422 14.6091L53.7542 15.1872C53.9826 15.269 54.1467 15.4143 54.2466 15.6228C54.3464 15.8313 54.3557 16.0482 54.2744 16.2733C54.1934 16.4992 54.0481 16.6609 53.8384 16.7584C53.6288 16.856 53.4102 16.8637 53.1825 16.7815L51.5706 16.2034ZM51.4274 22.2472C51.332 22.048 51.3248 21.8355 51.4058 21.6097C51.4868 21.3838 51.6274 21.2243 51.8275 21.1312L53.3834 20.4071C53.5835 20.3139 53.7943 20.307 54.0157 20.3864C54.2371 20.4658 54.4024 20.6075 54.5118 20.8117C54.6158 21.0289 54.6285 21.2472 54.5498 21.4667C54.4711 21.6862 54.3226 21.8465 54.1044 21.9476L52.5759 22.659C52.3575 22.7606 52.1342 22.7705 51.9058 22.6886C51.6774 22.6067 51.5179 22.4596 51.4274 22.2472ZM58.2013 23.0792C56.858 22.5976 55.8829 21.7231 55.276 20.456C54.6692 19.1888 54.604 17.8909 55.0804 16.5623C55.5568 15.2337 56.4318 14.273 57.7056 13.6802C58.9794 13.0874 60.288 13.0318 61.6313 13.5134C62.9746 13.9951 63.9497 14.8696 64.5566 16.1367C65.1634 17.4039 65.2286 18.7018 64.7522 20.0304C64.2759 21.359 63.4008 22.3197 62.127 22.9125C60.8532 23.5053 59.5446 23.5609 58.2013 23.0792Z" fill="#525252"/>
</svg>
